<mxfile host="app.diagrams.net" modified="2024-06-06T09:33:48.662Z" agent="Mozilla/5.0 (X11; Ubuntu; Linux x86_64; rv:126.0) Gecko/20100101 Firefox/126.0" version="24.4.14" etag="CUV9TJwX9ppsZTjfDHv3" type="github">
  <diagram name="Pagina-1" id="FNE1dmOy4S3gYHnMnKp_">
    <mxGraphModel>
      <root>
        <mxCell id="0" />
        <mxCell id="1" parent="0" />
      </root>
    </mxGraphModel>
  </diagram>
</mxfile>
